<?xml version="1.0" standalone="no"?>
<!DOCTYPE svg PUBLIC "-//W3C//DTD SVG 20010904//EN"
 "http://www.w3.org/TR/2001/REC-SVG-20010904/DTD/svg10.dtd">
<svg version="1.0" xmlns="http://www.w3.org/2000/svg"
 width="512.000000pt" height="512.000000pt" viewBox="0 0 512.000000 512.000000"
 preserveAspectRatio="xMidYMid meet">

<g transform="translate(0.000000,512.000000) scale(0.100000,-0.100000)"
fill="#ffffff" stroke="none">
<path d="M3156 5069 l-26 -20 0 -330 c0 -196 4 -338 10 -349 26 -48 110 -43
137 10 20 39 18 631 -2 669 -24 46 -74 55 -119 20z"/>
<path d="M2206 4849 c-50 -40 -41 -65 126 -336 84 -136 160 -255 170 -265 43
-43 128 -5 128 57 0 33 -298 525 -333 550 -30 21 -59 19 -91 -6z"/>
<path d="M4112 4853 c-12 -10 -91 -133 -177 -273 -134 -219 -156 -259 -151
-285 7 -37 40 -65 76 -65 15 0 37 8 49 18 32 27 322 503 328 539 11 64 -75
108 -125 66z"/>
<path d="M1628 3782 c-296 -295 -328 -331 -328 -360 0 -29 54 -86 618 -644
339 -337 762 -756 939 -932 303 -300 325 -320 358 -320 34 0 79 43 965 929
921 921 930 930 930 970 0 38 -7 47 -323 362 l-323 323 -1254 0 -1255 0 -327
-328z m1179 -39 l-207 -208 -207 208 -208 207 415 0 415 0 -208 -207z m1220 0
l-207 -208 -207 208 -208 207 415 0 415 0 -208 -207z m-813 -241 c-224 -1
-410 0 -413 3 -3 3 87 98 199 210 l205 205 208 -207 207 -208 -406 -3z m1421
208 l210 -210 -420 0 -420 0 210 210 c115 116 210 210 210 210 0 0 95 -94 210
-210z m-2435 -5 l205 -205 -415 0 -415 0 205 205 c113 113 207 205 210 205 3
0 97 -92 210 -205z m577 -1070 c128 -385 232 -703 231 -706 -2 -4 -325 313
-718 702 l-714 709 483 -2 484 -3 234 -700z m923 697 c0 -6 -472 -1427 -486
-1462 -4 -10 -501 1438 -504 1468 0 1 223 2 495 2 272 0 495 -3 495 -8z m420
-707 c-393 -393 -715 -713 -717 -711 -1 1 104 323 235 714 l237 712 480 0 480
0 -715 -715z"/>
<path d="M1255 2359 c-81 -12 -125 -28 -381 -134 l-222 -92 -4 64 c-4 70 -23
103 -78 141 -32 21 -42 22 -245 22 -203 0 -213 -1 -245 -23 -19 -12 -43 -38
-54 -57 -21 -34 -21 -48 -24 -905 -2 -478 0 -898 3 -932 8 -72 33 -117 85
-147 32 -19 51 -21 240 -21 196 0 207 1 242 23 47 29 78 92 78 159 0 49 1 51
38 66 137 54 329 61 454 15 36 -14 246 -120 465 -236 221 -117 434 -223 478
-238 61 -20 106 -28 190 -31 132 -6 15 -34 1395 336 543 146 999 273 1029 288
29 14 77 49 106 78 217 217 154 571 -124 704 -72 34 -81 36 -176 35 -97 0
-118 -5 -645 -148 -300 -81 -597 -161 -660 -178 -63 -16 -120 -33 -128 -35
-10 -4 -12 5 -7 43 20 155 -68 342 -205 435 -30 20 -320 191 -645 380 -639
372 -659 381 -820 392 -44 3 -107 1 -140 -4z m245 -175 c68 -19 1245 -700
1307 -757 66 -60 98 -135 97 -227 0 -127 -64 -227 -179 -282 -69 -32 -164 -38
-232 -14 -22 8 -191 102 -376 210 -199 116 -347 196 -362 196 -59 0 -96 -83
-57 -128 27 -32 682 -409 750 -431 162 -55 357 -7 481 117 l56 56 735 198
c439 118 753 198 781 198 196 1 329 -205 249 -387 -24 -56 -80 -114 -133 -138
-18 -9 -300 -87 -627 -174 -327 -88 -797 -214 -1045 -280 -247 -66 -481 -128
-520 -137 -88 -20 -215 -14 -299 16 -33 11 -242 117 -465 235 -223 117 -442
226 -486 241 -72 25 -94 28 -225 28 -136 1 -203 -9 -285 -40 -14 -6 -15 61
-13 636 l3 641 238 99 c132 55 262 107 289 116 107 35 207 38 318 8z m-1010
-869 l0 -885 -160 0 -160 0 0 885 0 885 160 0 160 0 0 -885z"/>
</g>
</svg>
